<svg width="13" height="13" viewBox="0 0 13 13" fill="none" xmlns="http://www.w3.org/2000/svg">
<path d="M9.53759 8.76299L12.0476 11.3147L11.2183 12.1579L8.70893 9.6056C7.77522 10.3667 6.61385 10.7807 5.41716 10.7789C2.50572 10.7789 0.142822 8.37625 0.142822 5.41578C0.142822 2.45531 2.50572 0.0526123 5.41716 0.0526123C8.32859 0.0526123 10.6915 2.45531 10.6915 5.41578C10.6932 6.63262 10.2861 7.81355 9.53759 8.76299ZM8.362 8.32083C9.10574 7.5431 9.5211 6.50059 9.51942 5.41578C9.51942 3.11081 7.68336 1.24443 5.41716 1.24443C3.15037 1.24443 1.3149 3.11081 1.3149 5.41578C1.3149 7.72015 3.15037 9.58713 5.41716 9.58713C6.484 9.58884 7.50924 9.16649 8.27409 8.41021L8.362 8.32083Z" fill="#E6E0EC"/>
</svg>
