<svg width="25" height="19" viewBox="0 0 25 19" fill="none" xmlns="http://www.w3.org/2000/svg">
<g filter="url(#filter0_d_730_132)">
<path d="M20.999 2.78066C20.2125 3.0863 19.3784 3.28702 18.5244 3.37619C19.4245 2.90324 20.0983 2.1589 20.42 1.28188C19.5752 1.72355 18.649 2.03308 17.6837 2.20052C17.0353 1.59103 16.1759 1.18682 15.239 1.05071C14.3021 0.914613 13.3403 1.05425 12.503 1.44792C11.6658 1.84159 11.0001 2.46723 10.6093 3.22758C10.2186 3.98793 10.1247 4.84039 10.3424 5.65243C8.62923 5.57699 6.9533 5.18589 5.42337 4.5045C3.89345 3.82312 2.54374 2.86669 1.46188 1.6973C1.07894 2.27514 0.877701 2.93201 0.878777 3.60065C0.878777 4.91299 1.63908 6.07237 2.79499 6.75117C2.11093 6.73225 1.44193 6.56996 0.84375 6.27782V6.32489C0.843956 7.1989 1.18822 8.04597 1.81818 8.72245C2.44814 9.39893 3.32502 9.8632 4.30014 10.0365C3.66513 10.1877 2.99929 10.21 2.35302 10.1017C2.62795 10.854 3.16381 11.512 3.88557 11.9834C4.60733 12.4549 5.47884 12.7162 6.37809 12.7309C5.48435 13.3476 4.46103 13.8034 3.36664 14.0724C2.27224 14.3413 1.12822 14.4182 0 14.2985C1.96947 15.4112 4.26212 16.0019 6.60371 16C14.5292 16 18.8633 10.232 18.8633 5.22976C18.8633 5.06685 18.8582 4.90213 18.8499 4.74103C19.6935 4.20538 20.4216 3.54184 21 2.78157L20.999 2.78066Z" fill="#F2EFF4"/>
</g>
<defs>
<filter id="filter0_d_730_132" x="0" y="0" width="25" height="19" filterUnits="userSpaceOnUse" color-interpolation-filters="sRGB">
<feFlood flood-opacity="0" result="BackgroundImageFix"/>
<feColorMatrix in="SourceAlpha" type="matrix" values="0 0 0 0 0 0 0 0 0 0 0 0 0 0 0 0 0 0 127 0" result="hardAlpha"/>
<feOffset dx="2" dy="1"/>
<feGaussianBlur stdDeviation="1"/>
<feComposite in2="hardAlpha" operator="out"/>
<feColorMatrix type="matrix" values="0 0 0 0 0 0 0 0 0 0 0 0 0 0 0 0 0 0 0.25 0"/>
<feBlend mode="normal" in2="BackgroundImageFix" result="effect1_dropShadow_730_132"/>
<feBlend mode="normal" in="SourceGraphic" in2="effect1_dropShadow_730_132" result="shape"/>
</filter>
</defs>
</svg>
